<svg xmlns="http://www.w3.org/2000/svg" version="1.2" viewBox="0 0 368 368" xml:space="preserve" preserveAspectRatio="xMidYMid meet" baseProfile="tiny-ps"><title>CSS Logo</title>
<path fill="#FEFDFE" opacity="1.000000" stroke="none" d=" M369.000000,143.000000   C369.000000,236.666672 369.000000,329.833344 369.000000,423.000000   C246.333328,423.000000 123.666664,423.000000 1.000000,423.000000   C1.000000,282.333344 1.000000,141.666672 1.000000,1.000000   C123.666664,1.000000 246.333328,1.000000 369.000000,1.000000   C369.000000,48.166668 369.000000,95.333336 369.000000,143.000000  M208.358170,60.284615   C207.909760,60.867046 207.461349,61.449478 206.107910,62.246223   C203.429504,62.246223 200.751083,62.246223 197.712067,62.246223   C197.712067,59.928539 197.712067,58.493729 197.911804,56.543171   C197.872238,56.363110 197.832657,56.183048 198.026245,55.365627   C198.025589,54.918041 198.024933,54.470459 198.002335,54.015873   C198.002335,54.015873 198.021240,54.032467 198.270203,53.844479   C198.404800,53.619865 198.359360,53.441170 198.530762,52.589676   C200.884430,52.428177 203.346191,51.752068 205.567947,52.218670   C209.477722,53.039780 210.171875,51.639935 209.452499,48.050968   C206.152649,47.686108 203.066833,47.344917 199.772232,46.230896   C199.772491,45.168713 199.772751,44.106533 200.005432,42.381443   C199.991745,41.916874 199.978043,41.452305 200.220993,40.708401   C200.346649,40.445953 200.307312,40.211147 200.467117,39.394779   C200.494568,38.928524 200.522018,38.462265 200.851196,37.505253   C200.892059,37.317627 200.932938,37.129997 201.671356,36.907223   C202.133484,36.876892 202.595596,36.846561 203.571457,37.145119   C206.846161,37.258392 209.451416,38.282867 210.034515,42.731575   C211.033569,42.697170 212.032639,42.662762 213.031693,42.628357   C212.291443,40.166237 216.920624,36.953125 211.273544,34.778534   C209.179276,34.526360 207.084991,34.274189 204.272293,33.744701   C200.065994,33.705715 195.822983,31.145134 192.466125,32.704777   C193.520996,36.211472 194.238235,38.595821 194.588776,41.502087   C194.492767,42.335361 194.396759,43.168636 194.063049,44.725666   C194.060059,45.483437 194.057053,46.241203 193.678177,47.702374   C193.109268,51.798820 192.540344,55.895271 191.334930,60.446411   C184.344711,61.728527 182.965057,60.533718 178.178772,48.804382   C178.587479,48.511826 179.157562,48.160034 179.663574,47.732410   C182.911743,44.987415 184.164169,41.458710 182.781540,37.472565   C181.393066,33.469627 177.747940,32.285053 173.957932,32.168514   C169.821823,32.041332 165.666443,32.364491 161.529449,32.640827   C160.940826,32.680149 160.408493,33.562355 159.490387,34.371468   C167.044449,37.462479 163.682587,43.729729 163.814651,48.530407   C163.953720,53.585018 166.898102,59.814167 160.066315,63.991226   C164.328613,64.637962 168.297638,64.676224 172.258087,64.510094   C172.432022,64.502800 172.865570,61.844238 172.609985,61.733635   C166.493332,59.086662 170.845169,54.661102 170.556519,50.879684   C172.232574,51.714005 173.331299,52.784866 174.097137,54.056259   C175.723434,56.756046 177.030563,59.657318 178.772217,62.273853   C179.469986,63.322124 180.923386,64.404549 182.109039,64.497299   C187.057037,64.884361 192.033981,64.901070 197.507812,65.392433   C198.863907,65.362465 200.219986,65.332497 201.678375,65.332626   C201.678375,65.332626 201.699234,65.437195 202.158615,66.026482   C209.315460,67.924004 216.422760,70.050140 223.651291,71.616875   C226.970825,72.336365 230.613174,72.493881 233.959885,71.963860   C240.545700,70.920853 245.797150,64.790733 246.887848,57.794220   C247.904861,51.270348 245.496277,45.976154 238.869781,42.730118   C233.702316,40.198799 228.034348,38.678200 222.552002,36.816872   C221.975174,36.621025 221.000824,36.984196 220.495117,37.418755   C220.188644,37.682087 220.227097,39.027504 220.453491,39.130100   C225.278076,41.316414 222.009552,44.479774 221.289642,47.089054   C220.011261,51.722416 218.174149,56.199753 216.837738,60.819592   C215.905319,64.042862 214.239212,65.262169 211.216873,63.340694   C213.164398,58.487457 213.164398,58.487457 209.582642,58.495770   C209.334015,58.996788 209.085388,59.497810 208.358170,60.284615  M121.063087,190.882507   C110.490875,184.899719 99.962410,178.837250 89.314476,172.992416   C86.780022,171.601196 85.864937,169.991043 85.887924,167.108963   C86.019455,150.617340 85.942818,134.124084 85.965500,117.631432   C85.967247,116.359024 86.189453,115.086914 86.339981,113.487488   C117.397522,113.227974 146.173325,105.664497 172.324371,89.080040   C198.713379,105.943199 227.699371,113.250229 258.854889,113.517746   C258.854889,115.930634 258.868713,117.576538 258.852722,119.222145   C258.718506,133.042160 258.566101,146.862015 258.449402,160.682175   C258.418579,164.332352 258.984283,167.708557 262.955292,169.316208   C268.681946,171.634689 273.537781,167.958359 273.600708,160.995544   C273.757233,143.674179 273.808380,126.351723 273.863861,109.029587   C273.892792,100.003876 271.484161,97.857018 262.622437,98.120354   C231.442657,99.046890 202.590958,91.671982 176.799927,73.655884   C173.667343,71.467651 170.896606,71.622017 167.637238,73.745926   C161.932983,77.463028 156.138550,81.153320 150.018906,84.101334   C128.159485,94.631676 105.039276,99.281006 80.764458,98.044273   C73.580238,97.678261 70.901863,100.159073 70.905136,107.203232   C70.915337,129.192413 71.020355,151.181595 70.991821,173.170670   C70.986359,177.381500 72.381538,180.715439 76.054169,182.792999   C90.974022,191.232910 105.937523,199.595657 120.980011,208.893173   C120.440079,220.198654 120.126808,231.521622 119.256287,242.801590   C118.871193,247.791565 120.510719,250.953445 124.634026,253.571671   C139.389786,262.941284 154.065430,272.439362 168.672226,282.039703   C172.495438,284.552490 175.921509,284.552185 179.825531,282.326050   C192.839554,274.905396 205.951782,267.657166 219.007736,260.309723   C224.129639,257.427307 225.498840,253.942917 223.268234,249.783051   C220.918152,245.400391 216.862045,244.425522 211.762192,247.240051   C200.394714,253.513565 189.126709,259.970062 177.681152,266.095978   C176.182327,266.898193 173.416580,266.941101 172.020447,266.074493   C160.282364,258.788757 148.678848,251.280914 137.180984,243.620529   C135.835770,242.724304 134.575684,240.469360 134.632141,238.892899   C135.132538,224.923935 135.839828,210.959183 136.785614,197.013504   C136.898972,195.341904 138.427643,193.103287 139.929108,192.293747   C151.937943,185.818970 164.045105,179.517609 176.275787,173.474121   C177.902298,172.670395 180.840897,172.889252 182.408539,173.863190   C192.869812,180.362396 203.076141,187.270096 213.465714,193.887421   C218.432281,197.050720 223.341705,195.130325 224.754654,189.734512   C225.860565,185.511307 223.854736,182.758820 220.460480,180.565262   C209.135284,173.246201 197.728577,166.042847 186.606094,158.425751   C182.163177,155.383072 178.375839,155.255203 173.698761,157.723221   C158.834839,165.566711 143.846588,173.177750 128.831909,180.730591   C124.426491,182.946640 121.582039,185.921829 121.063087,190.882507  M321.796387,218.760040   C328.067566,220.855301 334.599091,222.399933 340.534119,225.206161   C346.076691,227.826843 346.376465,231.594254 342.062531,235.875031   C339.020569,238.893631 335.726166,241.815796 332.097748,244.058182   C316.026001,253.990662 298.616516,260.886261 280.499634,265.151337   C281.712585,258.569611 279.108246,254.251450 272.835815,251.986679   C271.447021,251.485229 270.202057,250.583176 268.894928,249.858231   C252.044464,240.512711 235.215393,231.128296 218.333786,221.839355   C212.257584,218.496002 206.262466,221.484711 205.941895,227.794708   C205.721756,232.127625 208.829361,233.842102 211.909973,235.552963   C228.174774,244.585922 244.395721,253.701447 260.782013,262.509003   C264.189423,264.340454 265.894623,266.422455 264.772003,270.672272   C251.671234,273.794861 238.702179,277.727417 225.444229,279.883331   C190.120407,285.627472 154.735855,291.517273 118.860947,292.183350   C96.424721,292.599915 73.942894,291.871826 51.518219,290.851135   C44.178185,290.517059 36.776028,288.170288 29.724632,285.789307   C22.141413,283.228729 21.490835,279.108429 27.421225,273.889221   C30.380919,271.284454 33.770012,268.812805 37.399128,267.383545   C55.181931,260.380157 73.110794,253.747665 91.784462,247.024643   C94.986580,246.136185 98.188698,245.247726 101.390816,244.359253   C101.227554,243.738159 101.064285,243.117065 100.901016,242.495972   C97.122261,243.463470 93.343513,244.430969 88.769745,245.588547   C69.925903,249.222885 51.391148,254.022980 33.904053,262.029388   C28.568022,264.472473 23.497301,268.030548 19.179516,272.023560   C14.042351,276.774292 14.631806,286.309998 20.545406,289.966125   C27.082939,294.007965 34.267193,297.641174 41.660912,299.547943   C70.198364,306.907410 99.314827,308.887360 128.773743,308.230408   C164.223434,307.439819 198.961502,301.602722 233.644241,295.126465   C244.247589,293.146515 254.696655,290.340332 265.260651,288.863922   C265.260651,301.119324 265.260651,313.374725 265.260651,325.475983   C263.933624,325.805115 263.465851,326.018097 262.995453,326.023987   C233.582596,326.391083 206.048874,333.443176 180.770630,348.813599   C179.539001,349.562469 176.961121,349.265015 175.600891,348.458466   C157.166946,337.528351 137.419037,330.410400 116.145523,327.742157   C108.272118,326.754639 100.337578,326.254486 92.138733,325.505402   C92.138733,323.186096 92.194229,320.902100 92.127487,318.621643   C91.975967,313.444489 89.696678,311.004517 85.011162,310.906281   C80.322235,310.807953 77.478027,313.232727 77.200562,318.078247   C76.905823,323.225494 76.797279,328.400421 76.959686,333.552185   C77.130409,338.968079 80.392204,341.668549 85.757889,341.420532   C117.839928,339.937622 147.464249,347.385712 174.031143,365.828278   C177.003555,367.891693 179.780853,367.998505 182.770172,365.917725   C209.313400,347.441895 238.920090,339.947998 271.002075,341.432831   C276.684326,341.695801 279.868408,338.998566 279.906799,333.239380   C280.016663,316.757477 279.986115,300.274658 280.591461,283.384735   C296.571472,278.052002 312.102783,271.703339 326.761505,263.313965   C336.552032,257.710693 345.582245,251.191040 351.762848,241.566574   C358.373169,231.272980 355.356781,220.173538 344.183624,215.440079   C337.850952,212.757278 330.894531,210.953217 324.056061,210.162064   C296.509613,206.975266 269.214905,210.193207 241.456100,214.219254   C240.916092,214.430847 240.376099,214.642426 239.225967,214.836899   C238.824799,214.901031 238.423630,214.965164 237.172974,214.933884   C234.896744,215.302917 232.620514,215.671967 230.344269,216.041000   C230.486145,216.720810 230.628036,217.400604 230.769913,218.080414   C234.163376,217.635895 237.556854,217.191376 241.830353,216.774979   C245.215668,216.544449 248.600967,216.313919 252.538376,216.458572   C254.014435,216.252319 255.490494,216.046082 257.828888,215.858414   C259.544586,215.768143 261.260315,215.677872 263.645691,215.816223   C264.102783,215.732590 264.559906,215.648941 265.863983,215.686264   C276.583099,215.750977 287.302185,215.815704 298.470612,216.309326   C299.652954,216.238556 300.835297,216.167801 302.827087,216.190445   C305.227142,216.407745 307.627228,216.625046 310.312012,217.230255   C310.876617,217.165207 311.441223,217.100159 312.783752,217.164413   C315.097137,217.525269 317.410522,217.886139 320.095062,218.562775   C320.095062,218.562775 320.566223,218.681656 320.566223,218.681656   C320.566223,218.681656 321.023224,218.516571 321.796387,218.760040  M195.977768,385.280457   C195.771912,382.960846 194.903946,380.432343 195.550903,378.381805   C196.168137,376.425507 198.364105,374.967316 201.067032,371.949127   C194.827316,372.413940 189.887207,372.750702 184.958893,373.213074   C184.596954,373.247070 183.952713,374.324585 184.083878,374.677673   C184.321548,375.317535 185.040268,376.233032 185.566223,376.238373   C189.229919,376.275543 189.185730,378.785004 189.385437,381.385254   C189.805832,386.858826 190.326889,392.326721 190.924530,397.784027   C191.425003,402.353790 194.030746,405.430786 198.251038,407.055206   C209.112823,411.236023 219.314529,403.994995 218.750717,392.456512   C218.499069,387.306458 217.885269,382.175049 217.512299,377.029633   C217.284256,373.883636 219.349213,373.157562 221.959503,372.945953   C224.349350,372.752258 226.471619,372.293915 227.171524,375.743805   C228.559601,382.585571 230.539246,389.310272 231.824905,396.167664   C232.115997,397.720306 230.545670,399.607788 229.882980,401.360352   C229.622284,402.049866 229.281891,402.831787 229.402435,403.494293   C229.468811,403.859192 230.491180,404.394043 230.955292,404.289185   C235.380341,403.289062 239.778152,402.168304 244.725204,400.948730   C237.867172,394.889801 237.548416,394.574921 237.003052,390.350616   C236.862030,389.258331 237.463165,388.070282 237.723373,386.926208   C238.883682,387.342987 240.327469,387.458496 241.150879,388.233307   C243.569672,390.509277 245.767654,393.023926 248.004944,395.487885   C251.396042,399.222626 255.438995,399.976562 259.658600,397.482391   C260.232483,397.143158 260.711182,396.317200 260.819824,395.649292   C260.877197,395.296570 260.046906,394.428253 259.607391,394.421265   C252.172516,394.302917 250.184998,387.360687 245.335754,383.715271   C246.177429,382.568481 246.758911,381.792084 247.323746,381.003784   C249.888565,377.424133 250.374390,373.489563 248.197769,369.738342   C246.015518,365.977417 242.132462,365.422974 238.111557,365.859589   C236.790588,366.003021 235.484955,366.293152 234.174850,366.530273   C226.013763,368.007324 217.851242,369.476807 209.695847,370.984711   C208.823441,371.146027 207.993851,371.538910 207.144409,371.824371   C207.927780,373.423920 209.071518,373.629852 209.863129,374.270721   C211.133667,375.299316 212.961243,376.493317 213.168671,377.832001   C214.007843,383.247345 214.596542,388.737244 214.742676,394.213928   C214.881271,399.408813 211.091904,402.902924 205.923050,403.088257   C200.893417,403.268555 197.574158,400.384094 196.918320,395.142731   C196.546600,392.171997 196.325912,389.182404 195.977768,385.280457  M164.066589,214.153412   C164.815781,215.445236 165.258087,217.180267 166.369095,217.949570   C170.440247,220.768600 170.438461,224.748077 170.274231,229.000900   C170.062241,234.491135 170.033020,239.991287 170.051987,245.486725   C170.068604,250.297394 172.286240,252.918274 176.137756,252.965408   C180.266235,253.015930 182.560364,250.364487 182.654099,245.308960   C182.774506,238.815735 182.645905,232.309998 183.038376,225.834732   C183.149612,223.999390 184.281906,221.774734 185.669693,220.546219   C191.609299,215.288315 193.246841,207.612259 189.390259,201.265671   C185.859787,195.455750 178.406662,193.079666 171.886124,195.685287   C164.981659,198.444321 161.887314,205.239304 164.066589,214.153412  M125.926018,398.426788   C126.439583,395.062073 126.953140,391.697388 127.493759,388.155426   C132.053818,388.958557 135.744003,389.608490 140.079742,390.372131   C139.835510,381.233063 131.557175,386.652222 128.391968,382.532135   C128.854858,379.782135 129.420425,376.422241 130.018158,372.871155   C134.166428,373.240997 138.217773,372.389557 140.316757,376.847565   C140.944473,378.180786 141.738419,379.435760 142.456223,380.726562   C143.237366,379.237152 144.198196,377.810577 144.747467,376.240082   C145.263535,374.764557 145.344971,373.137024 145.669556,371.279205   C137.475052,369.952911 129.786346,368.651093 122.070206,367.539795   C121.207291,367.415466 120.188705,368.371918 117.845078,369.499298   C123.843407,370.881744 123.791252,373.869781 122.950958,377.474396   C122.122314,381.029022 121.839844,384.707275 121.140160,388.296631   C120.179359,393.225494 121.753685,399.639191 113.314766,400.403870   C113.495544,401.003265 113.676323,401.602661 113.857094,402.202026   C122.587692,403.660095 131.318283,405.118164 140.267700,406.612762   C141.192657,404.077850 142.082199,401.949371 142.720566,399.748047   C143.001266,398.780090 142.770630,397.663818 142.772171,396.614899   C141.682816,397.027374 140.304718,397.149963 139.551590,397.900024   C135.113266,402.320557 131.486938,402.759888 125.926018,398.426788  M260.146301,359.756744   C258.125031,360.521210 256.040039,361.158600 254.118195,362.121521   C253.474731,362.443939 253.247589,363.597229 252.830154,364.370758   C253.498550,364.684387 254.322662,365.422516 254.810394,365.243622   C258.305725,363.961426 258.712219,366.698059 259.521423,368.773132   C261.815857,374.656677 263.982880,380.590057 266.288483,386.469116   C267.244568,388.906982 268.255951,391.171631 265.035156,392.797913   C264.526215,393.054901 264.408417,394.086487 264.109772,394.759918   C264.935211,395.057800 265.934845,395.818451 266.559601,395.583252   C274.277039,392.677917 281.939728,389.627258 289.630157,386.608765   C289.001251,383.042114 288.464233,379.996552 287.927216,376.950989   C287.484955,376.814240 287.042664,376.677490 286.600372,376.540741   C285.935638,377.673981 284.781982,378.768768 284.689270,379.947021   C284.245148,385.590942 279.878448,387.140411 275.703522,387.530701   C274.338135,387.658356 272.452545,383.565338 271.037689,381.259705   C270.319183,380.088837 270.118073,378.600464 269.609589,377.028534   C273.526855,375.642273 277.077057,374.385895 280.772522,373.078125   C280.290985,369.525696 279.212524,367.804932 275.575226,369.666473   C273.259735,370.851501 270.751160,371.659271 267.792480,372.852692   C266.377380,369.191376 265.102325,365.892517 263.725525,362.330353   C268.419220,360.995697 272.595795,356.753387 276.427002,362.889313   C276.684998,363.302490 278.232208,363.496155 278.500702,363.192169   C279.016479,362.608154 279.407959,361.493439 279.209686,360.776062   C278.522888,358.290863 277.560699,355.881744 276.649811,353.291595   C271.053070,355.478333 265.953217,357.470917 260.146301,359.756744  M180.328308,404.007202   C180.807999,401.977722 181.287689,399.948273 181.767395,397.918793   C181.299744,397.595551 180.832108,397.272308 180.364456,396.949097   C179.317398,397.942871 178.024307,398.778229 177.265259,399.957428   C173.697311,405.500275 168.057739,407.188232 162.231064,404.057800   C156.651962,401.060333 155.403320,395.805573 155.510101,390.028534   C155.612213,384.504303 157.455078,379.861420 162.774994,377.358398   C169.473709,374.206604 174.585327,376.135620 177.208023,382.553894   C177.514954,383.305023 178.396393,383.821411 179.011490,384.446625   C179.649002,383.659882 180.720322,382.934845 180.842621,382.074829   C181.208786,379.499847 181.203796,376.872131 181.344666,374.246826   C174.063095,371.982910 167.212311,371.456665 160.357224,373.963837   C152.168610,376.958710 147.554153,384.135345 148.256500,392.606445   C148.957092,401.056335 154.668884,407.639709 163.274994,408.869507   C167.635681,409.492645 172.218597,409.109802 176.621628,408.553467   C177.945435,408.386200 179.001907,406.103241 180.328308,404.007202  M97.220512,399.454407   C104.857964,400.453644 109.553360,398.597412 111.769684,393.702637   C113.935570,388.919220 112.287621,384.597992 106.402458,379.551270   C104.891800,378.255890 102.847992,377.172424 102.092850,375.515839   C101.261719,373.692505 100.745628,370.610962 101.726517,369.383331   C102.749229,368.103363 106.372147,367.372620 107.682442,368.219971   C109.508041,369.400543 110.240639,372.271088 111.441437,374.418121   C111.878563,375.199707 112.160156,376.201538 112.820053,376.669647   C113.155571,376.907623 114.427544,376.386414 114.842323,375.863983   C118.535362,371.212250 117.319366,366.864990 111.671776,364.916931   C109.340424,364.112732 106.825775,363.460663 104.386551,363.432709   C100.167099,363.384338 96.495758,364.873047 94.684326,369.120453   C92.904549,373.293549 93.964897,376.987854 97.048065,380.087769   C99.154587,382.205750 101.569946,384.014496 103.705711,386.106049   C106.279243,388.626312 107.284348,391.647247 104.306839,394.366302   C101.309837,397.103271 97.935387,396.318542 95.527069,393.442535   C94.122787,391.765564 93.698235,389.288483 92.717560,387.226166   C92.339348,386.430786 91.762917,385.563232 91.037590,385.171356   C90.687798,384.982391 89.478348,385.656616 89.179497,386.217651   C86.980316,390.346191 88.957504,396.042297 93.177361,397.966156   C94.234497,398.448120 95.344780,398.813477 97.220512,399.454407  M134.920334,44.375477   C135.787888,42.039307 136.655457,39.703136 137.954208,36.205822   C133.105133,37.146313 128.570068,38.025894 124.035019,38.905479   C123.919724,39.469753 123.804436,40.034031 123.689148,40.598309   C129.748398,40.863850 129.405792,45.276794 130.048767,49.067429   C130.660355,52.672985 131.196808,56.296524 131.968292,59.868523   C133.214783,65.639809 137.193436,68.688141 143.038284,68.570305   C151.949448,68.390633 156.696060,62.357018 155.948563,53.429268   C155.404709,46.933640 150.008682,40.038589 157.475998,33.858322   C157.189178,33.519005 156.902359,33.179688 156.615540,32.840370   C152.378845,33.639206 148.142151,34.438046 143.905441,35.236885   C143.891052,35.785328 143.876663,36.333775 143.862274,36.882217   C144.763718,37.262814 145.786240,37.485096 146.538727,38.060505   C147.715668,38.960491 149.372482,39.941967 149.663177,41.165249   C150.737518,45.686275 151.523407,50.298725 152.060287,54.918354   C152.634811,59.861893 149.972412,63.160938 145.409988,63.749702   C141.152390,64.299141 138.047073,61.831375 137.105087,57.011436   C136.339859,53.095905 135.702591,49.155365 134.920334,44.375477  M106.132668,68.363075   C105.164268,66.818039 104.003914,65.359535 103.261482,63.712627   C100.410393,57.388142 101.496269,51.558929 105.968025,48.365822   C110.662033,45.014011 112.915855,45.408035 119.915924,50.529766   C119.905457,47.761356 119.593391,44.952606 118.484177,42.505123   C118.088234,41.631474 115.696922,41.155624 114.331490,41.341888   C112.059166,41.651863 109.801903,42.461685 107.674286,43.377087   C97.177582,47.893269 93.167793,57.346378 97.584953,66.916389   C101.844536,76.145004 111.547112,78.929512 121.758133,73.853775   C128.303421,70.600212 128.800842,69.571144 126.802261,62.749977   C126.566406,61.944988 125.768196,61.304771 125.230675,60.588169   C124.592537,61.385178 123.600281,62.091957 123.370682,62.993061   C120.886406,72.743134 114.498459,75.041428 106.132668,68.363075  M296.915344,21.288616   C296.278625,21.105782 295.648468,20.894712 295.004150,20.744389   C286.731445,18.814285 279.089264,22.789213 276.668304,30.273018   C274.309448,37.564812 277.683838,45.327843 284.412811,48.089901   C291.809967,51.126225 300.370453,48.308781 303.825165,41.700890   C307.623779,34.435127 305.059662,26.238159 296.915344,21.288616  z"/>
<path fill="#31AEE4" opacity="1.000000" stroke="none" d=" M280.480164,266.023132   C298.616516,260.886261 316.026001,253.990662 332.097748,244.058182   C335.726166,241.815796 339.020569,238.893631 342.062531,235.875031   C346.376465,231.594254 346.076691,227.826843 340.534119,225.206161   C334.599091,222.399933 328.067566,220.855301 321.223694,218.493408   C320.338898,218.088715 320.029877,218.095459 319.723907,218.247009   C317.410522,217.886139 315.097137,217.525269 312.258606,216.881195   C311.164734,216.679428 310.596008,216.760880 310.027283,216.842346   C307.627228,216.625046 305.227142,216.407745 302.221893,215.879639   C300.418243,215.672699 299.219757,215.776550 298.021301,215.880417   C287.302185,215.815704 276.583099,215.750977 265.267181,215.466125   C264.105591,215.359863 263.540802,215.473724 262.976013,215.587585   C261.260315,215.677872 259.544586,215.768143 257.141052,215.617828   C254.964264,215.612625 253.475266,215.848007 251.986282,216.083389   C248.600967,216.313919 245.215668,216.544449 241.181946,216.552979   C239.696518,215.897095 238.859497,215.463196 238.022461,215.029297   C238.423630,214.965164 238.824799,214.901031 239.818329,214.917191   C240.943726,214.810501 241.476761,214.623505 242.009796,214.436523   C269.214905,210.193207 296.509613,206.975266 324.056061,210.162064   C330.894531,210.953217 337.850952,212.757278 344.183624,215.440079   C355.356781,220.173538 358.373169,231.272980 351.762848,241.566574   C345.582245,251.191040 336.552032,257.710693 326.761505,263.313965   C312.102783,271.703339 296.571472,278.052002 279.890503,283.603394   C274.531830,285.185516 269.874084,286.549011 265.216370,287.912537   C254.696655,290.340332 244.247589,293.146515 233.644241,295.126465   C198.961502,301.602722 164.223434,307.439819 128.773743,308.230408   C99.314827,308.887360 70.198364,306.907410 41.660912,299.547943   C34.267193,297.641174 27.082939,294.007965 20.545406,289.966125   C14.631806,286.309998 14.042351,276.774292 19.179516,272.023560   C23.497301,268.030548 28.568022,264.472473 33.904053,262.029388   C51.391148,254.022980 69.925903,249.222885 89.437286,245.733856   C90.399231,246.247482 90.693642,246.615799 90.988045,246.984100   C73.110794,253.747665 55.181931,260.380157 37.399128,267.383545   C33.770012,268.812805 30.380919,271.284454 27.421225,273.889221   C21.490835,279.108429 22.141413,283.228729 29.724632,285.789307   C36.776028,288.170288 44.178185,290.517059 51.518219,290.851135   C73.942894,291.871826 96.424721,292.599915 118.860947,292.183350   C154.735855,291.517273 190.120407,285.627472 225.444229,279.883331   C238.702179,277.727417 251.671234,273.794861 265.466858,270.410034   C270.934509,268.772919 275.707336,267.398041 280.480164,266.023132  z"/>
<path fill="#693293" opacity="1.000000" stroke="none" d=" M120.884933,207.986847   C105.937523,199.595657 90.974022,191.232910 76.054169,182.792999   C72.381538,180.715439 70.986359,177.381500 70.991821,173.170670   C71.020355,151.181595 70.915337,129.192413 70.905136,107.203232   C70.901863,100.159073 73.580238,97.678261 80.764458,98.044273   C105.039276,99.281006 128.159485,94.631676 150.018906,84.101334   C156.138550,81.153320 161.932983,77.463028 167.637238,73.745926   C170.896606,71.622017 173.667343,71.467651 176.799927,73.655884   C202.590958,91.671982 231.442657,99.046890 262.622437,98.120354   C271.484161,97.857018 273.892792,100.003876 273.863861,109.029587   C273.808380,126.351723 273.757233,143.674179 273.600708,160.995544   C273.537781,167.958359 268.681946,171.634689 262.955292,169.316208   C258.984283,167.708557 258.418579,164.332352 258.449402,160.682175   C258.566101,146.862015 258.718506,133.042160 258.852722,119.222145   C258.868713,117.576538 258.854889,115.930634 258.854889,113.517746   C227.699371,113.250229 198.713379,105.943199 172.324371,89.080040   C146.173325,105.664497 117.397522,113.227974 86.339981,113.487488   C86.189453,115.086914 85.967247,116.359024 85.965500,117.631432   C85.942818,134.124084 86.019455,150.617340 85.887924,167.108963   C85.864937,169.991043 86.780022,171.601196 89.314476,172.992416   C99.962410,178.837250 110.490875,184.899719 121.455902,191.420792   C121.527458,197.301666 121.206192,202.644272 120.884933,207.986847  z"/>
<path fill="#EE222A" opacity="1.000000" stroke="none" d=" M120.932465,208.440018   C121.206192,202.644272 121.527458,197.301666 121.777008,191.528671   C121.582039,185.921829 124.426491,182.946640 128.831909,180.730591   C143.846588,173.177750 158.834839,165.566711 173.698761,157.723221   C178.375839,155.255203 182.163177,155.383072 186.606094,158.425751   C197.728577,166.042847 209.135284,173.246201 220.460480,180.565262   C223.854736,182.758820 225.860565,185.511307 224.754654,189.734512   C223.341705,195.130325 218.432281,197.050720 213.465714,193.887421   C203.076141,187.270096 192.869812,180.362396 182.408539,173.863190   C180.840897,172.889252 177.902298,172.670395 176.275787,173.474121   C164.045105,179.517609 151.937943,185.818970 139.929108,192.293747   C138.427643,193.103287 136.898972,195.341904 136.785614,197.013504   C135.839828,210.959183 135.132538,224.923935 134.632141,238.892899   C134.575684,240.469360 135.835770,242.724304 137.180984,243.620529   C148.678848,251.280914 160.282364,258.788757 172.020447,266.074493   C173.416580,266.941101 176.182327,266.898193 177.681152,266.095978   C189.126709,259.970062 200.394714,253.513565 211.762192,247.240051   C216.862045,244.425522 220.918152,245.400391 223.268234,249.783051   C225.498840,253.942917 224.129639,257.427307 219.007736,260.309723   C205.951782,267.657166 192.839554,274.905396 179.825531,282.326050   C175.921509,284.552185 172.495438,284.552490 168.672226,282.039703   C154.065430,272.439362 139.389786,262.941284 124.634026,253.571671   C120.510719,250.953445 118.871193,247.791565 119.256287,242.801590   C120.126808,231.521622 120.440079,220.198654 120.932465,208.440018  z"/>
<path fill="#693293" opacity="1.000000" stroke="none" d=" M265.238525,288.388214   C269.874084,286.549011 274.531830,285.185516 279.600189,283.807098   C279.986115,300.274658 280.016663,316.757477 279.906799,333.239380   C279.868408,338.998566 276.684326,341.695801 271.002075,341.432831   C238.920090,339.947998 209.313400,347.441895 182.770172,365.917725   C179.780853,367.998505 177.003555,367.891693 174.031143,365.828278   C147.464249,347.385712 117.839928,339.937622 85.757889,341.420532   C80.392204,341.668549 77.130409,338.968079 76.959686,333.552185   C76.797279,328.400421 76.905823,323.225494 77.200562,318.078247   C77.478027,313.232727 80.322235,310.807953 85.011162,310.906281   C89.696678,311.004517 91.975967,313.444489 92.127487,318.621643   C92.194229,320.902100 92.138733,323.186096 92.138733,325.505402   C100.337578,326.254486 108.272118,326.754639 116.145523,327.742157   C137.419037,330.410400 157.166946,337.528351 175.600891,348.458466   C176.961121,349.265015 179.539001,349.562469 180.770630,348.813599   C206.048874,333.443176 233.582596,326.391083 262.995453,326.023987   C263.465851,326.018097 263.933624,325.805115 265.260651,325.475983   C265.260651,313.374725 265.260651,301.119324 265.238525,288.388214  z"/>
<path fill="#693394" opacity="1.000000" stroke="none" d=" M280.489899,265.587219   C275.707336,267.398041 270.934509,268.772919 265.778992,270.183167   C265.894623,266.422455 264.189423,264.340454 260.782013,262.509003   C244.395721,253.701447 228.174774,244.585922 211.909973,235.552963   C208.829361,233.842102 205.721756,232.127625 205.941895,227.794708   C206.262466,221.484711 212.257584,218.496002 218.333786,221.839355   C235.215393,231.128296 252.044464,240.512711 268.894928,249.858231   C270.202057,250.583176 271.447021,251.485229 272.835815,251.986679   C279.108246,254.251450 281.712585,258.569611 280.489899,265.587219  z"/>
<path fill="#F12D34" opacity="1.000000" stroke="none" d=" M196.007477,385.740875   C196.325912,389.182404 196.546600,392.171997 196.918320,395.142731   C197.574158,400.384094 200.893417,403.268555 205.923050,403.088257   C211.091904,402.902924 214.881271,399.408813 214.742676,394.213928   C214.596542,388.737244 214.007843,383.247345 213.168671,377.832001   C212.961243,376.493317 211.133667,375.299316 209.863129,374.270721   C209.071518,373.629852 207.927780,373.423920 207.144409,371.824371   C207.993851,371.538910 208.823441,371.146027 209.695847,370.984711   C217.851242,369.476807 226.013763,368.007324 234.174850,366.530273   C235.484955,366.293152 236.790588,366.003021 238.111557,365.859589   C242.132462,365.422974 246.015518,365.977417 248.197769,369.738342   C250.374390,373.489563 249.888565,377.424133 247.323746,381.003784   C246.758911,381.792084 246.177429,382.568481 245.335754,383.715271   C250.184998,387.360687 252.172516,394.302917 259.607391,394.421265   C260.046906,394.428253 260.877197,395.296570 260.819824,395.649292   C260.711182,396.317200 260.232483,397.143158 259.658600,397.482391   C255.438995,399.976562 251.396042,399.222626 248.004944,395.487885   C245.767654,393.023926 243.569672,390.509277 241.150879,388.233307   C240.327469,387.458496 238.883682,387.342987 237.723389,386.926208   C237.463165,388.070282 236.862030,389.258331 237.003052,390.350616   C237.548416,394.574921 237.867172,394.889801 244.725204,400.948730   C239.778152,402.168304 235.380341,403.289062 230.955292,404.289185   C230.491180,404.394043 229.468811,403.859192 229.402435,403.494293   C229.281891,402.831787 229.622284,402.049866 229.882980,401.360352   C230.545670,399.607788 232.115997,397.720306 231.824905,396.167664   C230.539246,389.310272 228.559601,382.585571 227.171524,375.743805   C226.471619,372.293915 224.349350,372.752258 221.959503,372.945953   C219.349213,373.157562 217.284256,373.883636 217.512299,377.029633   C217.885269,382.175049 218.499069,387.306458 218.750717,392.456512   C219.314529,403.994995 209.112823,411.236023 198.251038,407.055206   C194.030746,405.430786 191.425003,402.353790 190.924530,397.784027   C190.326889,392.326721 189.805832,386.858826 189.385437,381.385254   C189.185730,378.785004 189.229919,376.275543 185.566223,376.238373   C185.040268,376.233032 184.321548,375.317535 184.083878,374.677673   C183.952713,374.324585 184.596954,373.247070 184.958893,373.213074   C189.887207,372.750702 194.827316,372.413940 201.067032,371.949127   C198.364105,374.967316 196.168137,376.425507 195.550903,378.381805   C194.903946,380.432343 195.771912,382.960846 196.007477,385.740875  M234.006866,378.387512   C234.442841,379.956268 234.878799,381.525024 235.426544,383.496033   C236.957047,383.027649 238.251572,382.818970 239.367233,382.255920   C243.186279,380.328461 243.854797,377.191010 242.325562,373.467651   C240.913269,370.028992 237.932266,369.304749 234.897415,370.398285   C230.651031,371.928345 233.918045,375.113251 234.006866,378.387512  z"/>
<path fill="#0BB0F1" opacity="1.000000" stroke="none" d=" M163.945618,213.770630   C161.887314,205.239304 164.981659,198.444321 171.886124,195.685287   C178.406662,193.079666 185.859787,195.455750 189.390259,201.265671   C193.246841,207.612259 191.609299,215.288315 185.669693,220.546219   C184.281906,221.774734 183.149612,223.999390 183.038376,225.834732   C182.645905,232.309998 182.774506,238.815735 182.654099,245.308960   C182.560364,250.364487 180.266235,253.015930 176.137756,252.965408   C172.286240,252.918274 170.068604,250.297394 170.051987,245.486725   C170.033020,239.991287 170.062241,234.491135 170.274231,229.000900   C170.438461,224.748077 170.440247,220.768600 166.369095,217.949570   C165.258087,217.180267 164.815781,215.445236 163.945618,213.770630  z"/>
<path fill="#F12F36" opacity="1.000000" stroke="none" d=" M211.029068,63.990456   C214.239212,65.262169 215.905319,64.042862 216.837738,60.819592   C218.174149,56.199753 220.011261,51.722416 221.289642,47.089054   C222.009552,44.479774 225.278076,41.316414 220.453491,39.130100   C220.227097,39.027504 220.188644,37.682087 220.495117,37.418755   C221.000824,36.984196 221.975174,36.621025 222.552002,36.816872   C228.034348,38.678200 233.702316,40.198799 238.869781,42.730118   C245.496277,45.976154 247.904861,51.270348 246.887848,57.794220   C245.797150,64.790733 240.545700,70.920853 233.959885,71.963860   C230.613174,72.493881 226.970825,72.336365 223.651291,71.616875   C216.422760,70.050140 209.315460,67.924004 202.116547,65.618851   C202.074524,65.019814 202.074600,64.828415 202.074677,64.637009   C201.908478,64.858849 201.742279,65.080688 201.576080,65.302521   C200.219986,65.332497 198.863907,65.362465 197.246796,64.849976   C195.314331,62.868916 193.642883,61.430317 191.971436,59.991718   C192.540344,55.895271 193.109268,51.798820 194.184631,47.303383   C194.560989,45.936897 194.430862,44.969406 194.300751,44.001911   C194.396759,43.168636 194.492767,42.335361 195.040436,41.343903   C196.331467,41.893646 197.104721,42.716396 198.041168,43.255825   C198.444138,43.487949 199.185425,43.132729 199.773010,43.044350   C199.772751,44.106533 199.772491,45.168713 199.504669,46.625359   C195.771149,48.823929 194.687866,51.040684 198.024261,54.022873   C198.024933,54.470459 198.025589,54.918041 197.628052,55.730591   C196.817413,56.713509 196.404953,57.331463 195.992493,57.949417   C196.136749,58.052322 196.281006,58.155228 196.425262,58.258133   C196.854202,57.858395 197.283142,57.458656 197.712067,57.058914   C197.712067,58.493729 197.712067,59.928539 197.712067,62.246223   C200.751083,62.246223 203.429504,62.246223 206.753769,62.402992   C208.609436,63.036663 209.819260,63.513557 211.029068,63.990456  M205.963943,64.422386   C205.717819,64.074722 205.471710,63.727058 205.225586,63.379391   C205.048676,63.526638 204.871750,63.673882 204.694839,63.821129   C205.114655,64.225220 205.534485,64.629318 206.318146,65.487679   C206.871033,65.525536 207.423935,65.563393 207.976822,65.601242   C207.982834,65.442139 207.988831,65.283043 207.994843,65.123940   C207.346405,65.065529 206.697983,65.007126 205.963943,64.422386  M240.797089,52.945553   C239.879181,48.019253 236.729233,45.163475 232.164948,43.592773   C229.939255,42.826855 228.513336,43.079723 227.710388,45.748241   C225.993378,51.454498 224.122925,57.130260 221.966232,62.682922   C220.575058,66.264641 222.097794,67.491333 225.207504,68.226936   C233.782928,70.255455 239.970261,64.570526 240.797089,52.945553  z"/>
<path fill="#F12F36" opacity="1.000000" stroke="none" d=" M126.002167,398.852173   C131.486938,402.759888 135.113266,402.320557 139.551590,397.900024   C140.304718,397.149963 141.682816,397.027374 142.772171,396.614899   C142.770630,397.663818 143.001266,398.780090 142.720566,399.748047   C142.082199,401.949371 141.192657,404.077850 140.267700,406.612762   C131.318283,405.118164 122.587692,403.660095 113.857094,402.202026   C113.676323,401.602661 113.495544,401.003265 113.314766,400.403870   C121.753685,399.639191 120.179359,393.225494 121.140160,388.296631   C121.839844,384.707275 122.122314,381.029022 122.950958,377.474396   C123.791252,373.869781 123.843407,370.881744 117.845078,369.499298   C120.188705,368.371918 121.207291,367.415466 122.070206,367.539795   C129.786346,368.651093 137.475052,369.952911 145.669556,371.279205   C145.344971,373.137024 145.263535,374.764557 144.747467,376.240082   C144.198196,377.810577 143.237366,379.237152 142.456223,380.726562   C141.738419,379.435760 140.944473,378.180786 140.316757,376.847565   C138.217773,372.389557 134.166428,373.240997 130.018158,372.871155   C129.420425,376.422241 128.854858,379.782135 128.391968,382.532135   C131.557175,386.652222 139.835510,381.233063 140.079742,390.372131   C135.744003,389.608490 132.053818,388.958557 127.493759,388.155426   C126.953140,391.697388 126.439583,395.062073 126.002167,398.852173  z"/>
<path fill="#F12E36" opacity="1.000000" stroke="none" d=" M260.499817,359.610138   C265.953217,357.470917 271.053070,355.478333 276.649811,353.291595   C277.560699,355.881744 278.522888,358.290863 279.209686,360.776062   C279.407959,361.493439 279.016479,362.608154 278.500702,363.192169   C278.232208,363.496155 276.684998,363.302490 276.427002,362.889313   C272.595795,356.753387 268.419220,360.995697 263.725525,362.330353   C265.102325,365.892517 266.377380,369.191376 267.792480,372.852692   C270.751160,371.659271 273.259735,370.851501 275.575226,369.666473   C279.212524,367.804932 280.290985,369.525696 280.772522,373.078125   C277.077057,374.385895 273.526855,375.642273 269.609589,377.028534   C270.118073,378.600464 270.319183,380.088837 271.037689,381.259705   C272.452545,383.565338 274.338135,387.658356 275.703522,387.530701   C279.878448,387.140411 284.245148,385.590942 284.689270,379.947021   C284.781982,378.768768 285.935638,377.673981 286.600372,376.540741   C287.042664,376.677490 287.484955,376.814240 287.927216,376.950989   C288.464233,379.996552 289.001251,383.042114 289.630157,386.608765   C281.939728,389.627258 274.277039,392.677917 266.559601,395.583252   C265.934845,395.818451 264.935211,395.057800 264.109772,394.759918   C264.408417,394.086487 264.526215,393.054901 265.035156,392.797913   C268.255951,391.171631 267.244568,388.906982 266.288483,386.469116   C263.982880,380.590057 261.815857,374.656677 259.521423,368.773132   C258.712219,366.698059 258.305725,363.961426 254.810394,365.243622   C254.322662,365.422516 253.498550,364.684387 252.830170,364.370728   C253.247589,363.597229 253.474731,362.443939 254.118195,362.121521   C256.040039,361.158600 258.125031,360.521210 260.499817,359.610138  z"/>
<path fill="#F12F36" opacity="1.000000" stroke="none" d=" M191.653183,60.219063   C193.642883,61.430317 195.314331,62.868916 196.993042,64.680542   C192.033981,64.901070 187.057037,64.884361 182.109039,64.497299   C180.923386,64.404549 179.469986,63.322124 178.772217,62.273853   C177.030563,59.657318 175.723434,56.756046 174.097137,54.056259   C173.331299,52.784866 172.232574,51.714005 170.556519,50.879684   C170.845169,54.661102 166.493332,59.086662 172.609985,61.733635   C172.865570,61.844238 172.432022,64.502800 172.258087,64.510094   C168.297638,64.676224 164.328613,64.637962 160.066315,63.991226   C166.898102,59.814167 163.953720,53.585018 163.814651,48.530407   C163.682587,43.729729 167.044449,37.462479 159.490387,34.371468   C160.408493,33.562355 160.940826,32.680149 161.529449,32.640827   C165.666443,32.364491 169.821823,32.041332 173.957932,32.168514   C177.747940,32.285053 181.393066,33.469627 182.781540,37.472565   C184.164169,41.458710 182.911743,44.987415 179.663574,47.732410   C179.157562,48.160034 178.587479,48.511826 178.178772,48.804382   C182.965057,60.533718 184.344711,61.728527 191.653183,60.219063  M175.488586,36.917522   C173.615601,36.721169 171.742599,36.524815 169.869614,36.328465   C169.869614,39.838474 169.869614,43.348488 169.869614,46.843105   C176.683319,46.828316 178.456985,43.955402 175.488586,36.917522  z"/>
<path fill="#F12E35" opacity="1.000000" stroke="none" d=" M180.254578,404.398376   C179.001907,406.103241 177.945435,408.386200 176.621628,408.553467   C172.218597,409.109802 167.635681,409.492645 163.274994,408.869507   C154.668884,407.639709 148.957092,401.056335 148.256500,392.606445   C147.554153,384.135345 152.168610,376.958710 160.357224,373.963837   C167.212311,371.456665 174.063095,371.982910 181.344666,374.246826   C181.203796,376.872131 181.208786,379.499847 180.842621,382.074829   C180.720322,382.934845 179.649002,383.659882 179.011505,384.446625   C178.396393,383.821411 177.514954,383.305023 177.208023,382.553894   C174.585327,376.135620 169.473709,374.206604 162.774994,377.358398   C157.455078,379.861420 155.612213,384.504303 155.510101,390.028534   C155.403320,395.805573 156.651962,401.060333 162.231064,404.057800   C168.057739,407.188232 173.697311,405.500275 177.265259,399.957428   C178.024307,398.778229 179.317398,397.942871 180.364456,396.949097   C180.832108,397.272308 181.299744,397.595551 181.767395,397.918793   C181.287689,399.948273 180.807999,401.977722 180.254578,404.398376  z"/>
<path fill="#F12D34" opacity="1.000000" stroke="none" d=" M96.825577,399.343445   C95.344780,398.813477 94.234497,398.448120 93.177361,397.966156   C88.957504,396.042297 86.980316,390.346191 89.179497,386.217651   C89.478348,385.656616 90.687798,384.982391 91.037590,385.171356   C91.762917,385.563232 92.339348,386.430786 92.717560,387.226166   C93.698235,389.288483 94.122787,391.765564 95.527069,393.442535   C97.935387,396.318542 101.309837,397.103271 104.306839,394.366302   C107.284348,391.647247 106.279243,388.626312 103.705711,386.106049   C101.569946,384.014496 99.154587,382.205750 97.048065,380.087769   C93.964897,376.987854 92.904549,373.293549 94.684326,369.120453   C96.495758,364.873047 100.167099,363.384338 104.386551,363.432709   C106.825775,363.460663 109.340424,364.112732 111.671776,364.916931   C117.319366,366.864990 118.535362,371.212250 114.842323,375.863983   C114.427544,376.386414 113.155571,376.907623 112.820053,376.669647   C112.160156,376.201538 111.878563,375.199707 111.441437,374.418121   C110.240639,372.271088 109.508041,369.400543 107.682442,368.219971   C106.372147,367.372620 102.749229,368.103363 101.726517,369.383331   C100.745628,370.610962 101.261719,373.692505 102.092850,375.515839   C102.847992,377.172424 104.891800,378.255890 106.402458,379.551270   C112.287621,384.597992 113.935570,388.919220 111.769684,393.702637   C109.553360,398.597412 104.857964,400.453644 96.825577,399.343445  z"/>
<path fill="#F13037" opacity="1.000000" stroke="none" d=" M134.964447,44.800697   C135.702591,49.155365 136.339859,53.095905 137.105087,57.011436   C138.047073,61.831375 141.152390,64.299141 145.409988,63.749702   C149.972412,63.160938 152.634811,59.861893 152.060287,54.918354   C151.523407,50.298725 150.737518,45.686275 149.663177,41.165249   C149.372482,39.941967 147.715668,38.960491 146.538727,38.060505   C145.786240,37.485096 144.763718,37.262814 143.862274,36.882217   C143.876663,36.333775 143.891052,35.785328 143.905441,35.236885   C148.142151,34.438046 152.378845,33.639206 156.615540,32.840370   C156.902359,33.179688 157.189178,33.519005 157.475998,33.858322   C150.008682,40.038589 155.404709,46.933640 155.948563,53.429268   C156.696060,62.357018 151.949448,68.390633 143.038284,68.570305   C137.193436,68.688141 133.214783,65.639809 131.968292,59.868523   C131.196808,56.296524 130.660355,52.672985 130.048767,49.067429   C129.405792,45.276794 129.748398,40.863850 123.689148,40.598309   C123.804436,40.034031 123.919724,39.469753 124.035019,38.905479   C128.570068,38.025894 133.105133,37.146313 137.954208,36.205822   C136.655457,39.703136 135.787888,42.039307 134.964447,44.800697  z"/>
<path fill="#F13137" opacity="1.000000" stroke="none" d=" M106.395096,68.641846   C114.498459,75.041428 120.886406,72.743134 123.370682,62.993061   C123.600281,62.091957 124.592537,61.385178 125.230675,60.588173   C125.768196,61.304771 126.566406,61.944988 126.802261,62.749977   C128.800842,69.571144 128.303421,70.600212 121.758133,73.853775   C111.547112,78.929512 101.844536,76.145004 97.584953,66.916389   C93.167793,57.346378 97.177582,47.893269 107.674286,43.377087   C109.801903,42.461685 112.059166,41.651863 114.331490,41.341888   C115.696922,41.155624 118.088234,41.631474 118.484177,42.505123   C119.593391,44.952606 119.905457,47.761356 119.915924,50.529766   C112.915855,45.408035 110.662033,45.014011 105.968025,48.365822   C101.496269,51.558929 100.410393,57.388142 103.261482,63.712627   C104.003914,65.359535 105.164268,66.818039 106.395096,68.641846  z"/>
<path fill="#121212" opacity="1.000000" stroke="none" d=" M297.242493,21.496014   C305.059662,26.238159 307.623779,34.435127 303.825165,41.700890   C300.370453,48.308781 291.809967,51.126225 284.412811,48.089901   C277.683838,45.327843 274.309448,37.564812 276.668304,30.273018   C279.089264,22.789213 286.731445,18.814285 295.004150,20.744389   C295.648468,20.894712 296.278625,21.105782 297.242493,21.496014  M283.818756,42.743710   C289.505219,46.430408 293.607544,46.206997 298.650055,41.828854   C301.947296,36.098042 301.753876,30.895872 298.105591,27.186968   C294.519806,23.541563 290.201477,23.171669 284.335571,26.233408   C279.238251,31.737804 278.937561,36.615082 283.818756,42.743710  z"/>
<path fill="#F12F36" opacity="1.000000" stroke="none" d=" M199.889221,42.712894   C199.185425,43.132729 198.444138,43.487949 198.041168,43.255825   C197.104721,42.716396 196.331467,41.893646 195.223785,41.082947   C194.238235,38.595821 193.520996,36.211472 192.466125,32.704777   C195.822983,31.145134 200.065994,33.705715 204.515137,34.143784   C204.191223,35.300655 203.624481,36.058445 203.057724,36.816235   C202.595596,36.846561 202.133484,36.876892 201.171265,36.718826   C200.232162,36.673725 199.793182,36.817017 199.354187,36.960312   C199.752609,37.305542 200.151047,37.650776 200.549469,37.996010   C200.522018,38.462265 200.494568,38.928524 200.129272,39.750160   C199.696243,40.203045 199.503174,40.356335 199.521790,40.389015   C199.643784,40.603134 199.811539,40.791180 199.964355,40.987740   C199.978043,41.452305 199.991745,41.916874 199.889221,42.712894  z"/>
<path fill="#F12F36" opacity="1.000000" stroke="none" d=" M198.013306,54.019371   C194.687866,51.040684 195.771149,48.823929 199.609070,47.011776   C203.066833,47.344917 206.152649,47.686108 209.452499,48.050968   C210.171875,51.639935 209.477722,53.039780 205.567947,52.218670   C203.346191,51.752068 200.884430,52.428177 198.303436,53.067596   C198.076096,53.545513 198.021240,54.032467 198.021240,54.032467   C198.021240,54.032467 198.002335,54.015873 198.013306,54.019371  M199.414154,49.483486   C199.414154,49.483486 199.522827,49.419029 199.414154,49.483486  z"/>
<path fill="#F12F36" opacity="1.000000" stroke="none" d=" M203.314590,36.980679   C203.624481,36.058445 204.191223,35.300655 204.874344,34.282440   C207.084991,34.274189 209.179276,34.526360 211.631500,35.314232   C211.364288,37.883850 210.739120,39.917778 210.113953,41.951706   C209.451416,38.282867 206.846161,37.258392 203.314590,36.980679  z"/>
<path fill="#6BC6EC" opacity="1.000000" stroke="none" d=" M91.386253,247.004364   C90.693642,246.615799 90.399231,246.247482 89.834793,245.638824   C93.343513,244.430969 97.122261,243.463470 100.901016,242.495972   C101.064285,243.117065 101.227554,243.738159 101.390816,244.359253   C98.188698,245.247726 94.986580,246.136185 91.386253,247.004364  z"/>
<path fill="#6DC5EC" opacity="1.000000" stroke="none" d=" M237.597717,214.981598   C238.859497,215.463196 239.696518,215.897095 240.741943,216.538940   C237.556854,217.191376 234.163376,217.635895 230.769913,218.080414   C230.628036,217.400604 230.486145,216.720810 230.344269,216.041000   C232.620514,215.671967 234.896744,215.302917 237.597717,214.981598  z"/>
<path fill="#F12F36" opacity="1.000000" stroke="none" d=" M211.122971,63.665573   C209.819260,63.513557 208.609436,63.036663 207.206284,62.295837   C207.461349,61.449478 207.909760,60.867046 208.858246,60.135559   C209.604858,59.406803 209.851395,58.827099 210.097931,58.247391   C213.164398,58.487457 213.164398,58.487457 211.122971,63.665573  z"/>
<path fill="#F12F36" opacity="1.000000" stroke="none" d=" M210.074234,42.341640   C210.739120,39.917778 211.364288,37.883850 211.982635,35.464500   C216.920624,36.953125 212.291443,40.166237 213.031693,42.628357   C212.032639,42.662762 211.033569,42.697170 210.074234,42.341640  z"/>
<path fill="#6DC5EC" opacity="1.000000" stroke="none" d=" M252.262329,216.270981   C253.475266,215.848007 254.964264,215.612625 256.709900,215.608536   C255.490494,216.046082 254.014435,216.252319 252.262329,216.270981  z"/>
<path fill="#6DC5EC" opacity="1.000000" stroke="none" d=" M298.245972,216.094879   C299.219757,215.776550 300.418243,215.672699 301.817169,215.832947   C300.835297,216.167801 299.652954,216.238556 298.245972,216.094879  z"/>
<path fill="#F12F36" opacity="1.000000" stroke="none" d=" M194.181885,44.363789   C194.430862,44.969406 194.560989,45.936897 194.372574,46.951683   C194.057053,46.241203 194.060059,45.483437 194.181885,44.363789  z"/>
<path fill="#F12F36" opacity="1.000000" stroke="none" d=" M200.700333,37.750633   C200.151047,37.650776 199.752609,37.305542 199.354187,36.960312   C199.793182,36.817017 200.232162,36.673725 200.822495,36.736397   C200.932938,37.129997 200.892059,37.317627 200.700333,37.750633  z"/>
<path fill="#F12F36" opacity="1.000000" stroke="none" d=" M197.811935,56.801044   C197.283142,57.458656 196.854202,57.858395 196.425262,58.258133   C196.281006,58.155228 196.136749,58.052322 195.992493,57.949417   C196.404953,57.331463 196.817413,56.713509 197.511475,56.049271   C197.832657,56.183048 197.872238,56.363110 197.811935,56.801044  z"/>
<path fill="#6DC5EC" opacity="1.000000" stroke="none" d=" M310.169647,217.036285   C310.596008,216.760880 311.164734,216.679428 311.869629,216.816528   C311.441223,217.100159 310.876617,217.165207 310.169647,217.036285  z"/>
<path fill="#F12F36" opacity="1.000000" stroke="none" d=" M209.840302,58.371582   C209.851395,58.827099 209.604858,59.406803 209.097534,59.992668   C209.085388,59.497810 209.334015,58.996788 209.840302,58.371582  z"/>
<path fill="#6DC5EC" opacity="1.000000" stroke="none" d=" M263.310852,215.701904   C263.540802,215.473724 264.105591,215.359863 264.843689,215.405640   C264.559906,215.648941 264.102783,215.732590 263.310852,215.701904  z"/>
<path fill="#6DC5EC" opacity="1.000000" stroke="none" d=" M241.732941,214.327881   C241.476761,214.623505 240.943726,214.810501 240.123383,214.925751   C240.376099,214.642426 240.916092,214.430847 241.732941,214.327881  z"/>
<path fill="#F12F36" opacity="1.000000" stroke="none" d=" M200.092682,40.848068   C199.811539,40.791180 199.643784,40.603134 199.521790,40.389015   C199.503174,40.356335 199.696243,40.203045 199.947205,40.054756   C200.307312,40.211147 200.346649,40.445953 200.092682,40.848068  z"/>
<path fill="#6DC5EC" opacity="1.000000" stroke="none" d=" M319.909485,218.404877   C320.029877,218.095459 320.338898,218.088715 320.837097,218.371674   C321.023224,218.516571 320.566223,218.681656 320.566223,218.681656   C320.566223,218.681656 320.095062,218.562775 319.909485,218.404877  z"/>
<path fill="#F12F36" opacity="1.000000" stroke="none" d=" M198.145721,53.938473   C198.021240,54.032467 198.076096,53.545513 198.104980,53.426949   C198.359360,53.441170 198.404800,53.619865 198.145721,53.938473  z"/>
<path fill="#FCF1EF" opacity="1.000000" stroke="none" d=" M233.921799,377.979370   C233.918045,375.113251 230.651031,371.928345 234.897415,370.398285   C237.932266,369.304749 240.913269,370.028992 242.325562,373.467651   C243.854797,377.191010 243.186279,380.328461 239.367233,382.255920   C238.251572,382.818970 236.957047,383.027649 235.426544,383.496033   C234.878799,381.525024 234.442841,379.956268 233.921799,377.979370  z"/>
<path fill="#FDF5F4" opacity="1.000000" stroke="none" d=" M240.849091,53.340332   C239.970261,64.570526 233.782928,70.255455 225.207504,68.226936   C222.097794,67.491333 220.575058,66.264641 221.966232,62.682922   C224.122925,57.130260 225.993378,51.454498 227.710388,45.748241   C228.513336,43.079723 229.939255,42.826855 232.164948,43.592773   C236.729233,45.163475 239.879181,48.019253 240.849091,53.340332  z"/>
<path fill="#F12F36" opacity="1.000000" stroke="none" d=" M206.049545,64.948715   C206.697983,65.007126 207.346405,65.065529 207.994843,65.123940   C207.988831,65.283043 207.982834,65.442139 207.976822,65.601242   C207.423935,65.563393 206.871033,65.525536 206.161011,65.240456   C206.003860,64.993233 206.049545,64.948715 206.049545,64.948715  z"/>
<path fill="#F12F36" opacity="1.000000" stroke="none" d=" M205.979080,65.013321   C205.534485,64.629318 205.114655,64.225220 204.694839,63.821129   C204.871750,63.673882 205.048676,63.526638 205.225586,63.379395   C205.471710,63.727058 205.717819,64.074722 206.006744,64.685547   C206.049545,64.948715 206.003860,64.993233 205.979080,65.013321  z"/>
<path fill="#F12F36" opacity="1.000000" stroke="none" d=" M201.627228,65.317574   C201.742279,65.080688 201.908478,64.858849 202.074677,64.637009   C202.074600,64.828415 202.074524,65.019814 201.886841,65.324203   C201.699234,65.437195 201.678375,65.332626 201.627228,65.317574  z"/>
<path fill="#FCE8E8" opacity="1.000000" stroke="none" d=" M175.788086,37.212326   C178.456985,43.955402 176.683319,46.828316 169.869614,46.843105   C169.869614,43.348488 169.869614,39.838474 169.869614,36.328465   C171.742599,36.524815 173.615601,36.721169 175.788086,37.212326  z"/>
<path fill="#E1E1E1" opacity="1.000000" stroke="none" d=" M285.009155,26.065220   C290.201477,23.171669 294.519806,23.541563 298.105591,27.186968   C301.753876,30.895872 301.947296,36.098042 298.048828,41.931042   C297.447632,42.033230 296.981689,41.992706 297.211487,41.606785   C296.951843,38.862209 295.550415,36.234856 296.150787,34.197308   C297.702972,28.929314 296.949585,27.191420 291.469025,26.939320   C289.338562,26.841318 287.192535,27.081358 285.045471,26.891747   C285.027924,26.432459 285.018524,26.248838 285.009155,26.065220  z"/>
<path fill="#CFCFCF" opacity="1.000000" stroke="none" d=" M284.672363,26.149315   C285.018524,26.248838 285.027924,26.432459 284.953522,27.340075   C284.973572,32.675797 285.077393,37.287525 284.727173,41.961731   C283.968201,42.043987 283.663269,42.063763 283.358368,42.083542   C278.937561,36.615082 279.238251,31.737804 284.672363,26.149315  z"/>
<path fill="#EEEEEE" opacity="1.000000" stroke="none" d=" M283.588562,42.413628   C283.663269,42.063763 283.968201,42.043987 285.136719,41.977104   C290.699432,42.884346 288.214661,38.383350 289.861084,36.567081   C292.585632,38.053196 292.255676,43.638859 296.981689,41.992706   C296.981689,41.992706 297.447632,42.033230 297.679749,42.004715   C293.607544,46.206997 289.505219,46.430408 283.588562,42.413628  z"/>
<path fill="#F12F36" opacity="1.000000" stroke="none" d=" M199.468491,49.451256   C199.522827,49.419029 199.414154,49.483486 199.468491,49.451256  z"/>
<path fill="#0F0F0F" opacity="1.000000" stroke="none" d=" M297.211487,41.606785   C292.255676,43.638859 292.585632,38.053196 289.861084,36.567081   C288.214661,38.383350 290.699432,42.884346 285.590790,41.914627   C285.077393,37.287525 284.973572,32.675797 284.961670,27.615742   C287.192535,27.081358 289.338562,26.841318 291.469025,26.939320   C296.949585,27.191420 297.702972,28.929314 296.150787,34.197308   C295.550415,36.234856 296.951843,38.862209 297.211487,41.606785  z"/>
</svg>